<svg id="ic_google" xmlns="http://www.w3.org/2000/svg" width="36" height="36" viewBox="0 0 36 36">
  <path id="Path_31" data-name="Path 31" d="M13.92,19.2v3.458H19.6a5.373,5.373,0,0,1-5.685,4.32,6.338,6.338,0,0,1,0-12.675,5.849,5.849,0,0,1,4.035,1.582l2.73-2.663A9.69,9.69,0,0,0,13.92,10.56a10.08,10.08,0,1,0,0,20.16c5.835,0,9.645-4.1,9.645-9.862a10.508,10.508,0,0,0-.142-1.658Z" transform="translate(-0.96 -2.64)" fill-rule="evenodd"/>
  <path id="Path_32" data-name="Path 32" d="M43.2,21.12H40.32V18.24H37.44v2.88H34.56V24h2.88v2.88h2.88V24H43.2Z" transform="translate(-8.64 -4.56)" fill-rule="evenodd"/>
  <path id="Path_33" data-name="Path 33" d="M0,0H36V36H0Z" fill="none"/>
</svg>
