<svg id="ic_github" xmlns="http://www.w3.org/2000/svg" width="36" height="36" viewBox="0 0 36 36">
  <path id="Path_19" data-name="Path 19" d="M20.4,9.6a10.78,10.78,0,0,0-3.382,21.022c.577.075.72-.217.72-.5V28.245c-3.023.653-3.675-1.44-3.675-1.44a3.044,3.044,0,0,0-1.222-1.583c-1.005-.645.075-.645.075-.645a2.241,2.241,0,0,1,1.65,1.08,2.294,2.294,0,0,0,3.173.862,1.955,1.955,0,0,1,.72-1.44c-2.377-.285-4.9-1.222-4.9-5.325a4.3,4.3,0,0,1,1.08-2.88A3.764,3.764,0,0,1,14.715,14s.93-.293,2.948,1.08a10.588,10.588,0,0,1,5.475,0C25.222,13.7,26.085,14,26.085,14a3.764,3.764,0,0,1,.075,2.88,3.964,3.964,0,0,1,1.08,2.88c0,4.17-2.52,5.04-4.9,5.325a2.768,2.768,0,0,1,.72,2.017v2.948a.519.519,0,0,0,.72.51A10.755,10.755,0,0,0,20.4,9.6Z" transform="translate(-2.4 -2.4)" fill="#181616" fill-rule="evenodd"/>
  <path id="Path_20" data-name="Path 20" d="M0,0H36V36H0Z" fill="none"/>
</svg>
