<svg id="ic_ios_menu" xmlns="http://www.w3.org/2000/svg" width="36" height="36" viewBox="0 0 36 36">
  <path id="Path_4" data-name="Path 4" d="M28.567,14.858A13.714,13.714,0,1,1,14.858,1.14,13.706,13.706,0,0,1,28.567,14.858Z" transform="translate(3.144 3.144)" fill="none" stroke="#e0b650" stroke-linecap="round" stroke-linejoin="round" stroke-width="1"/>
  <path id="Path_5" data-name="Path 5" d="M16.573,20.567a1.839,1.839,0,0,0,1.71-1.71,1.846,1.846,0,0,0-1.71-1.718,1.846,1.846,0,0,0-1.71,1.718A1.839,1.839,0,0,0,16.573,20.567Zm-6.855,0a1.839,1.839,0,0,0,1.71-1.71,1.846,1.846,0,0,0-1.71-1.718A1.847,1.847,0,0,0,8,18.858,1.84,1.84,0,0,0,9.718,20.567Zm13.71,0a1.846,1.846,0,0,0,1.718-1.71,1.853,1.853,0,0,0-1.718-1.718,1.846,1.846,0,0,0-1.71,1.718A1.839,1.839,0,0,0,23.427,20.567Z" transform="translate(1.429 -0.856)" fill="#e0b650" fill-rule="evenodd"/>
  <path id="Path_6" data-name="Path 6" d="M0,0H36V36H0Z" fill="none"/>
</svg>
