<svg id="ic_ios_share" xmlns="http://www.w3.org/2000/svg" width="36" height="36" viewBox="0 0 36 36">
  <path id="Path_11" data-name="Path 11" d="M26.21,11.207,22.392,7.39l-3.817,3.817-1.005-1L22.392,5.38,27.215,10.2Z" transform="translate(-4.392 -1.345)" fill="#e0b650"/>
  <path id="Path_12" data-name="Path 12" d="M23.04,6.72h1.44V21.84H23.04Z" transform="translate(-5.76 -1.68)" fill="#e0b650"/>
  <path id="Path_13" data-name="Path 13" d="M28.08,32.64H13.68a2.123,2.123,0,0,1-2.16-2.16V17.52a2.123,2.123,0,0,1,2.16-2.16h5.04V16.8H13.68a.677.677,0,0,0-.72.72V30.48a.677.677,0,0,0,.72.72h14.4a.677.677,0,0,0,.72-.72V17.52a.677.677,0,0,0-.72-.72H23.04V15.36h5.04a2.123,2.123,0,0,1,2.16,2.16V30.48A2.123,2.123,0,0,1,28.08,32.64Z" transform="translate(-2.88 -3.84)" fill="#e0b650"/>
  <path id="Path_14" data-name="Path 14" d="M0,0H36V36H0Z" fill="none"/>
</svg>
