<svg id="ic_pencil" xmlns="http://www.w3.org/2000/svg" width="36" height="36" viewBox="0 0 36 36">
  <path id="Path_37" data-name="Path 37" d="M9.22,32.83l1.8-7.125L21.745,14.98l5.325,5.325L16.345,31.03Zm3.09-6.4-1.08,4.4,4.4-1.08,9.435-9.435L21.745,16.99Z" transform="translate(-2.305 -3.745)" fill="#e0b650"/>
  <path id="Path_38" data-name="Path 38" d="M15.865,34.13a5.026,5.026,0,0,0-3.675-3.675l.36-1.365a6.443,6.443,0,0,1,4.68,4.68Z" transform="translate(-3.047 -7.273)" fill="#e0b650"/>
  <path id="Path_39" data-name="Path 39" d="M25.007,18.52l1.013,1.013-9.368,9.375L15.64,27.9Z" transform="translate(-3.91 -4.63)" fill="#e0b650"/>
  <path id="Path_40" data-name="Path 40" d="M10.56,36.745l2.085-.5a2.173,2.173,0,0,0-1.583-1.583Z" transform="translate(-2.64 -8.665)" fill="#e0b650"/>
  <path id="Path_41" data-name="Path 41" d="M31.825,19.005,26.5,13.68l2.16-2.16.36.075a5.8,5.8,0,0,1,4.965,4.965l.075.36ZM28.51,13.68l3.315,3.315.645-.652a4.319,4.319,0,0,0-3.308-3.308Z" transform="translate(-6.625 -2.88)" fill="#e0b650"/>
  <path id="Path_42" data-name="Path 42" d="M0,0H36V36H0Z" fill="none"/>
</svg>
