<svg id="ic_user" xmlns="http://www.w3.org/2000/svg" width="36" height="36" viewBox="0 0 36 36">
  <path id="Path_24" data-name="Path 24" d="M20.02,32.16A12.24,12.24,0,1,1,32.26,19.92,12.229,12.229,0,0,1,20.02,32.16Zm0-23.04a10.8,10.8,0,1,0,10.8,10.8A10.784,10.784,0,0,0,20.02,9.12Z" transform="translate(-1.945 -1.92)"/>
  <path id="Path_25" data-name="Path 25" d="M14.257,29.738l-1.3-.578c.36-.863,1.515-1.365,2.738-1.942s2.738-1.223,2.738-2.017V24.12a3.67,3.67,0,0,1-1.3-2.3,2.755,2.755,0,0,1-.937-1.875,2.743,2.743,0,0,1,.36-1.222,12.3,12.3,0,0,1-.285-2.52c0-2.805,1.942-4.68,5.04-4.68a3.5,3.5,0,0,1,2.52.863,3.761,3.761,0,0,1,2.52,3.817,10.468,10.468,0,0,1-.36,2.737,1.883,1.883,0,0,1,.285,1,2.253,2.253,0,0,1-.937,1.875,3.424,3.424,0,0,1-1.222,2.228V25.2c0,.645,1.3,1.155,2.445,1.582,1.373.5,2.813,1.08,3.315,2.235l-1.365.5c-.218-.577-1.373-1-2.452-1.365-1.583-.578-3.382-1.23-3.382-2.88V23.4l.36-.218a2.162,2.162,0,0,0,.863-1.725v-.5l.435-.218c.068,0,.428-.218.428-.8a.822.822,0,0,0-.21-.427l-.292-.292.142-.36a9.594,9.594,0,0,0,.36-2.587c0-1.372-.787-2.377-1.44-2.377H22.9l-.217-.36c0-.293-.5-.578-1.365-.578-2.235,0-3.6,1.222-3.6,3.24a15.1,15.1,0,0,0,.36,2.52l.068.36-.285.36c-.075,0-.218.218-.218.5,0,.36.435.8.645.938l.292.217v.36a2.464,2.464,0,0,0,.938,1.725l.36.218v1.875c0,1.725-1.875,2.587-3.6,3.307C15.48,28.875,14.4,29.378,14.257,29.738Z" transform="translate(-3.24 -2.88)"/>
  <path id="Path_26" data-name="Path 26" d="M0,0H36V36H0Z" fill="none"/>
</svg>
