<svg xmlns="http://www.w3.org/2000/svg" xmlns:xlink="http://www.w3.org/1999/xlink" width="195" height="195" viewBox="0 0 195 195">
  <defs>
    <filter id="Rectangle_19" x="0" y="0" width="195" height="195" filterUnits="userSpaceOnUse">
      <feOffset dx="-1" dy="1" input="SourceAlpha"/>
      <feGaussianBlur stdDeviation="2.5" result="blur"/>
      <feFlood flood-opacity="0.161"/>
      <feComposite operator="in" in2="blur"/>
      <feComposite in="SourceGraphic"/>
    </filter>
    <linearGradient id="linear-gradient" x1="0.5" x2="0.5" y2="1" gradientUnits="objectBoundingBox">
      <stop offset="0" stop-color="#f6d484"/>
      <stop offset="1" stop-color="#e9bf58"/>
    </linearGradient>
  </defs>
  <g id="ic_launcher" transform="translate(286.5 -1282.5)">
    <g transform="matrix(1, 0, 0, 1, -286.5, 1282.5)" filter="url(#Rectangle_19)">
      <rect id="Rectangle_19-2" data-name="Rectangle 19" width="180" height="180" rx="28" transform="translate(8.5 6.5)" fill="#fff"/>
    </g>
    <path id="Path_36" data-name="Path 36" d="M0,59H180v3H0Zm0,45H180v3H0Z" transform="translate(-278 1318.5)" fill="#c7c5c9" fill-rule="evenodd"/>
    <g id="Group_3" data-name="Group 3" transform="translate(-278 1341.5)">
      <g id="Group_2" data-name="Group 2">
        <ellipse id="Ellipse_1" data-name="Ellipse 1" cx="2.5" cy="2" rx="2.5" ry="2" transform="translate(15 0.5)" fill="#c2c0c4"/>
        <circle id="Ellipse_2" data-name="Ellipse 2" cx="2" cy="2" r="2" transform="translate(23 0.5)" fill="#c2c0c4"/>
        <ellipse id="Ellipse_3" data-name="Ellipse 3" cx="2.5" cy="2" rx="2.5" ry="2" transform="translate(30 0.5)" fill="#c2c0c4"/>
        <circle id="Ellipse_4" data-name="Ellipse 4" cx="2" cy="2" r="2" transform="translate(38 0.5)" fill="#c2c0c4"/>
        <ellipse id="Ellipse_5" data-name="Ellipse 5" cx="2.5" cy="2" rx="2.5" ry="2" transform="translate(45 0.5)" fill="#c2c0c4"/>
        <circle id="Ellipse_6" data-name="Ellipse 6" cx="2" cy="2" r="2" transform="translate(53 0.5)" fill="#c2c0c4"/>
        <ellipse id="Ellipse_7" data-name="Ellipse 7" cx="2.5" cy="2" rx="2.5" ry="2" transform="translate(60 0.5)" fill="#c2c0c4"/>
        <circle id="Ellipse_8" data-name="Ellipse 8" cx="2" cy="2" r="2" transform="translate(68 0.5)" fill="#c2c0c4"/>
        <ellipse id="Ellipse_9" data-name="Ellipse 9" cx="2.5" cy="2" rx="2.5" ry="2" transform="translate(75 0.5)" fill="#c2c0c4"/>
        <circle id="Ellipse_10" data-name="Ellipse 10" cx="2" cy="2" r="2" transform="translate(83 0.5)" fill="#c2c0c4"/>
        <ellipse id="Ellipse_11" data-name="Ellipse 11" cx="2.5" cy="2" rx="2.5" ry="2" transform="translate(90 0.5)" fill="#c2c0c4"/>
        <circle id="Ellipse_12" data-name="Ellipse 12" cx="2" cy="2" r="2" transform="translate(98 0.5)" fill="#c2c0c4"/>
        <ellipse id="Ellipse_13" data-name="Ellipse 13" cx="2.5" cy="2" rx="2.5" ry="2" transform="translate(105 0.5)" fill="#c2c0c4"/>
        <circle id="Ellipse_14" data-name="Ellipse 14" cx="2" cy="2" r="2" transform="translate(113 0.5)" fill="#c2c0c4"/>
        <ellipse id="Ellipse_15" data-name="Ellipse 15" cx="2.5" cy="2" rx="2.5" ry="2" transform="translate(120 0.5)" fill="#c2c0c4"/>
        <circle id="Ellipse_16" data-name="Ellipse 16" cx="2" cy="2" r="2" transform="translate(128 0.5)" fill="#c2c0c4"/>
        <ellipse id="Ellipse_17" data-name="Ellipse 17" cx="2.5" cy="2" rx="2.5" ry="2" transform="translate(135 0.5)" fill="#c2c0c4"/>
        <circle id="Ellipse_18" data-name="Ellipse 18" cx="2" cy="2" r="2" transform="translate(143 0.5)" fill="#c2c0c4"/>
        <ellipse id="Ellipse_19" data-name="Ellipse 19" cx="2.5" cy="2" rx="2.5" ry="2" transform="translate(150 0.5)" fill="#c2c0c4"/>
        <circle id="Ellipse_20" data-name="Ellipse 20" cx="2" cy="2" r="2" transform="translate(158 0.5)" fill="#c2c0c4"/>
        <ellipse id="Ellipse_21" data-name="Ellipse 21" cx="2.5" cy="2" rx="2.5" ry="2" transform="translate(165 0.5)" fill="#c2c0c4"/>
        <circle id="Ellipse_22" data-name="Ellipse 22" cx="2" cy="2" r="2" transform="translate(173 0.5)" fill="#c2c0c4"/>
        <circle id="Ellipse_23" data-name="Ellipse 23" cx="2" cy="2" r="2" transform="translate(8 0.5)" fill="#c2c0c4"/>
        <ellipse id="Ellipse_24" data-name="Ellipse 24" cx="2.5" cy="2" rx="2.5" ry="2" transform="translate(0 0.5)" fill="#c2c0c4"/>
      </g>
    </g>
    <path id="Rectangle_20" data-name="Rectangle 20" d="M28,0H152a28,28,0,0,1,28,28V45a0,0,0,0,1,0,0H0a0,0,0,0,1,0,0V28A28,28,0,0,1,28,0Z" transform="translate(-278 1289)" fill="url(#linear-gradient)"/>
  </g>
</svg>
